ffmpeg started on 2016-12-09 at 11:50:56
Report written to "Output/x264/results/ffmpeg/crowd_run_2160p50placebo4000k.log"
Command line:
Tools/ffmpeg/ffmpeg -benchmark -y -i Input/y4m/crowd_run_2160p50.y4m -c:v libx264 -preset placebo -b:v 4000k -an Output/x264/encoded/crowd_run_2160p50placebo4000k.mkv
ffmpeg version N-82227-gdb23fde Copyright (c) 2000-2016 the FFmpeg developers
  built with gcc 5.4.0 (Ubuntu 5.4.0-6ubuntu1~16.04.2) 20160609
  configuration: --prefix=/home/jaroslav/ffmpeg_build --pkg-config-flags=--static --extra-cflags=-I/home/jaroslav/ffmpeg_build/include --extra-ldflags=-L/home/jaroslav/ffmpeg_build/lib --bindir=/home/jaroslav/bin --enable-gpl --enable-libass --enable-libfdk-aac --enable-libfreetype --enable-libmp3lame --enable-libopus --enable-libtheora --enable-libvorbis --enable-libvpx --enable-libx264 --enable-libx265 --enable-nvenc --enable-libmfx --enable-libxvid --enable-libgsm --enable-libopencore-amrnb --enable-version3 --enable-nonfree
  libavutil      55. 35.100 / 55. 35.100
  libavcodec     57. 66.101 / 57. 66.101
  libavformat    57. 57.100 / 57. 57.100
  libavdevice    57.  2.100 / 57.  2.100
  libavfilter     6. 66.100 /  6. 66.100
  libswscale      4.  3.100 /  4.  3.100
  libswresample   2.  4.100 /  2.  4.100
  libpostproc    54.  2.100 / 54.  2.100
Input #0, yuv4mpegpipe, from 'Input/y4m/crowd_run_2160p50.y4m':
  Duration: 00:00:10.00, start: 0.000000, bitrate: 4976642 kb/s
    Stream #0:0: Video: rawvideo (I420 / 0x30323449), yuv420p(progressive), 3840x2160, SAR 1:1 DAR 16:9, 50 fps, 50 tbr, 50 tbn, 50 tbc
[libx264 @ 0x3c841c0] using SAR=1/1
[libx264 @ 0x3c841c0] DPB size (16 frames, 518400 mbs) > level limit (5 frames, 184320 mbs)
[libx264 @ 0x3c841c0] using cpu capabilities: MMX2 SSE2Fast SSSE3 SSE4.2 AVX FMA3 AVX2 LZCNT BMI2
[libx264 @ 0x3c841c0] profile High, level 5.2
[libx264 @ 0x3c841c0] 264 - core 148 - H.264/MPEG-4 AVC codec - Copyleft 2003-2016 - http://www.videolan.org/x264.html - options: cabac=1 ref=16 deblock=1:0:0 analyse=0x3:0x133 me=tesa subme=11 psy=1 psy_rd=1.00:0.00 mixed_ref=1 me_range=24 chroma_me=1 trellis=2 8x8dct=1 cqm=0 deadzone=21,11 fast_pskip=0 chroma_qp_offset=-2 threads=6 lookahead_threads=1 sliced_threads=0 nr=0 decimate=1 interlaced=0 bluray_compat=0 constrained_intra=0 bframes=16 b_pyramid=2 b_adapt=2 b_bias=0 direct=3 weightb=1 open_gop=0 weightp=2 keyint=250 keyint_min=25 scenecut=40 intra_refresh=0 rc_lookahead=60 rc=abr mbtree=1 bitrate=4000 ratetol=1.0 qcomp=0.60 qpmin=0 qpmax=69 qpstep=4 ip_ratio=1.40 aq=1:1.00
Output #0, matroska, to 'Output/x264/encoded/crowd_run_2160p50placebo4000k.mkv':
  Metadata:
    encoder         : Lavf57.57.100
    Stream #0:0: Video: h264 (libx264) (H264 / 0x34363248), yuv420p, 3840x2160 [SAR 1:1 DAR 16:9], q=-1--1, 4000 kb/s, 50 fps, 1k tbn, 50 tbc
    Metadata:
      encoder         : Lavc57.66.101 libx264
    Side data:
      cpb: bitrate max/min/avg: 0/0/4000000 buffer size: 0 vbv_delay: -1
Stream mapping:
  Stream #0:0 -> #0:0 (rawvideo (native) -> h264 (libx264))
Press [q] to stop, [?] for help
frame=   19 fps=0.0 q=0.0 size=       0kB time=00:00:00.00 bitrate=N/A speed=   0x    frame=   32 fps= 26 q=0.0 size=       0kB time=00:00:00.00 bitrate=N/A speed=   0x    frame=   43 fps= 21 q=0.0 size=       0kB time=00:00:00.00 bitrate=N/A speed=   0x    frame=   51 fps= 20 q=0.0 size=       0kB time=00:00:00.00 bitrate=N/A speed=   0x    frame=   58 fps= 18 q=0.0 size=       0kB time=00:00:00.00 bitrate=N/A speed=   0x    frame=   65 fps= 18 q=0.0 size=       0kB time=00:00:00.00 bitrate=N/A speed=   0x    frame=   72 fps= 17 q=0.0 size=       0kB time=00:00:00.00 bitrate=N/A speed=   0x    frame=   79 fps= 17 q=0.0 size=       0kB time=00:00:00.00 bitrate=N/A speed=   0x    frame=   84 fps=3.3 q=0.0 size=       0kB time=00:00:00.00 bitrate=N/A speed=   0x    frame=   89 fps=3.2 q=50.0 size=       1kB time=-00:00:00.01 bitrate=N/A speed=N/A    frame=   90 fps=2.8 q=45.0 size=       1kB time=00:00:00.00 bitrate=5888.0kbits/s speed=3.06e-05x    frame=   95 fps=2.5 q=53.0 size=       1kB time=00:00:00.10 bitrate=  58.3kbits/s speed=0.00262x    frame=  100 fps=2.3 q=58.0 size=       1kB time=00:00:00.20 bitrate=  29.3kbits/s speed=0.00457x    frame=  105 fps=2.1 q=58.0 size=       1kB time=00:00:00.30 bitrate=  19.6kbits/s speed=0.00595x    frame=  106 fps=2.1 q=58.0 size=       1kB time=00:00:00.32 bitrate=  18.3kbits/s speed=0.00624x    frame=  107 fps=2.0 q=57.0 size=       1kB time=00:00:00.34 bitrate=  17.3kbits/s speed=0.00653x    frame=  110 fps=2.0 q=58.0 size=       1kB time=00:00:00.40 bitrate=  14.7kbits/s speed=0.00734x    frame=  111 fps=1.9 q=58.0 size=       1kB time=00:00:00.42 bitrate=  14.0kbits/s speed=0.00713x    frame=  112 fps=1.9 q=58.0 size=       1kB time=00:00:00.44 bitrate=  13.4kbits/s speed=0.0073x    frame=  113 fps=1.9 q=57.0 size=       1kB time=00:00:00.46 bitrate=  12.8kbits/s speed=0.00756x    frame=  115 fps=1.7 q=57.0 size=       1kB time=00:00:00.50 bitrate=  11.8kbits/s speed=0.00747x    frame=  116 fps=1.7 q=57.0 size=       1kB time=00:00:00.52 bitrate=  11.3kbits/s speed=0.00764x    frame=  117 fps=1.7 q=58.0 size=       1kB time=00:00:00.54 bitrate=  10.9kbits/s speed=0.00783x    frame=  119 fps=1.6 q=57.0 size=       1kB time=00:00:00.58 bitrate=  10.1kbits/s speed=0.00771x    frame=  120 fps=1.6 q=57.0 size=       1kB time=00:00:00.60 bitrate=   9.8kbits/s speed=0.00785x    frame=  121 fps=1.6 q=57.0 size=       1kB time=00:00:00.62 bitrate=   9.5kbits/s speed=0.00796x    frame=  123 fps=1.5 q=57.0 size=       1kB time=00:00:00.66 bitrate=   8.9kbits/s speed=0.0078x    frame=  124 fps=1.4 q=57.0 size=       1kB time=00:00:00.68 bitrate=   8.6kbits/s speed=0.00794x    frame=  125 fps=1.4 q=57.0 size=       1kB time=00:00:00.70 bitrate=   8.4kbits/s speed=0.00802x    frame=  127 fps=1.4 q=57.0 size=       1kB time=00:00:00.74 bitrate=   7.9kbits/s speed=0.0079x    frame=  128 fps=1.3 q=57.0 size=       1kB time=00:00:00.76 bitrate=   7.7kbits/s speed=0.00802x    frame=  129 fps=1.3 q=57.0 size=       1kB time=00:00:00.78 bitrate=   7.5kbits/s speed=0.00812x    frame=  132 fps=1.3 q=57.0 size=       1kB time=00:00:00.84 bitrate=   7.0kbits/s speed=0.00818x    frame=  133 fps=1.3 q=57.0 size=       1kB time=00:00:00.86 bitrate=   6.8kbits/s speed=0.00822x    frame=  134 fps=1.3 q=57.0 size=       1kB time=00:00:00.88 bitrate=   6.7kbits/s speed=0.00832x    frame=  137 fps=1.2 q=57.0 size=       1kB time=00:00:00.94 bitrate=   6.3kbits/s speed=0.00833x    frame=  138 fps=1.2 q=57.0 size=       1kB time=00:00:00.96 bitrate=   6.1kbits/s speed=0.00839x    frame=  139 fps=1.2 q=57.0 size=       1kB time=00:00:00.98 bitrate=   6.0kbits/s speed=0.00848x    frame=  142 fps=1.2 q=57.0 size=       1kB time=00:00:01.04 bitrate=   5.7kbits/s speed=0.00849x    frame=  143 fps=1.2 q=57.0 size=       1kB time=00:00:01.06 bitrate=   5.5kbits/s speed=0.00856x    frame=  144 fps=1.2 q=57.0 size=       1kB time=00:00:01.08 bitrate=   5.4kbits/s speed=0.00864x    frame=  147 fps=1.1 q=57.0 size=       1kB time=00:00:01.14 bitrate=   5.2kbits/s speed=0.0087x    frame=  148 fps=1.1 q=57.0 size=       1kB time=00:00:01.16 bitrate=   5.1kbits/s speed=0.0087x    frame=  149 fps=1.1 q=57.0 size=       1kB time=00:00:01.18 bitrate=   5.0kbits/s speed=0.0088x    frame=  151 fps=1.1 q=57.0 size=       1kB time=00:00:01.22 bitrate=   4.8kbits/s speed=0.0088x    frame=  152 fps=1.1 q=57.0 size=       1kB time=00:00:01.24 bitrate=   4.7kbits/s speed=0.00885x    frame=  153 fps=1.1 q=57.0 size=       1kB time=00:00:01.26 bitrate=   4.7kbits/s speed=0.00893x    frame=  154 fps=1.1 q=56.0 size=       1kB time=00:00:01.28 bitrate=   4.6kbits/s speed=0.00899x    frame=  155 fps=1.1 q=56.0 size=       1kB time=00:00:01.30 bitrate=   4.5kbits/s speed=0.00906x    frame=  156 fps=1.1 q=56.0 size=       1kB time=00:00:01.32 bitrate=   4.5kbits/s speed=0.00896x    frame=  157 fps=1.0 q=56.0 size=       1kB time=00:00:01.34 bitrate=   4.4kbits/s speed=0.00895x    frame=  158 fps=1.0 q=56.0 size=       1kB time=00:00:01.36 bitrate=   4.3kbits/s speed=0.00902x    frame=  160 fps=1.0 q=56.0 size=       1kB time=00:00:01.40 bitrate=   4.2kbits/s speed=0.00895x    frame=  161 fps=1.0 q=56.0 size=       1kB time=00:00:01.42 bitrate=   4.1kbits/s speed=0.009x    frame=  162 fps=1.0 q=56.0 size=       1kB time=00:00:01.44 bitrate=   4.1kbits/s speed=0.00906x    frame=  165 fps=1.0 q=56.0 size=       1kB time=00:00:01.50 bitrate=   3.9kbits/s speed=0.00905x    frame=  166 fps=1.0 q=56.0 size=       1kB time=00:00:01.52 bitrate=   3.9kbits/s speed=0.00909x    frame=  167 fps=1.0 q=56.0 size=       1kB time=00:00:01.54 bitrate=   3.8kbits/s speed=0.00917x    frame=  169 fps=1.0 q=56.0 size=       1kB time=00:00:01.58 bitrate=   3.7kbits/s speed=0.0091x    frame=  170 fps=1.0 q=56.0 size=       1kB time=00:00:01.60 bitrate=   3.7kbits/s speed=0.00915x    frame=  171 fps=1.0 q=56.0 size=       1kB time=00:00:01.62 bitrate=   3.6kbits/s speed=0.0092x    frame=  174 fps=1.0 q=56.0 size=       1kB time=00:00:01.68 bitrate=   3.5kbits/s speed=0.0092x    frame=  175 fps=0.9 q=56.0 size=       1kB time=00:00:01.70 bitrate=   3.5kbits/s speed=0.00921x    frame=  176 fps=0.9 q=56.0 size=       1kB time=00:00:01.72 bitrate=   3.4kbits/s speed=0.00923x    frame=  179 fps=0.9 q=56.0 size=       1kB time=00:00:01.78 bitrate=   3.3kbits/s speed=0.00927x    frame=  180 fps=0.9 q=56.0 size=       1kB time=00:00:01.80 bitrate=   3.3kbits/s speed=0.00931x    frame=  181 fps=0.9 q=56.0 size=       1kB time=00:00:01.82 bitrate=   3.2kbits/s speed=0.00938x    frame=  182 fps=0.9 q=56.0 size=       1kB time=00:00:01.84 bitrate=   3.2kbits/s speed=0.00944x    frame=  183 fps=0.9 q=56.0 size=       1kB time=00:00:01.86 bitrate=   3.2kbits/s speed=0.00925x    frame=  184 fps=0.9 q=56.0 size=       1kB time=00:00:01.88 bitrate=   3.1kbits/s speed=0.0093x    frame=  185 fps=0.9 q=56.0 size=       1kB time=00:00:01.90 bitrate=   3.1kbits/s speed=0.00936x    frame=  187 fps=0.9 q=56.0 size=       1kB time=00:00:01.94 bitrate=   3.0kbits/s speed=0.00928x    frame=  188 fps=0.9 q=56.0 size=       1kB time=00:00:01.96 bitrate=   3.0kbits/s speed=0.00932x    frame=  189 fps=0.9 q=56.0 size=       1kB time=00:00:01.98 bitrate=   3.0kbits/s speed=0.00937x    frame=  192 fps=0.9 q=56.0 size=       1kB time=00:00:02.04 bitrate=   2.9kbits/s speed=0.00961x    frame=  193 fps=0.9 q=56.0 size=       1kB time=00:00:02.06 bitrate=   2.9kbits/s speed=0.00932x    frame=  194 fps=0.9 q=56.0 size=       1kB time=00:00:02.08 bitrate=   2.8kbits/s speed=0.00937x    frame=  195 fps=0.9 q=56.0 size=       1kB time=00:00:02.10 bitrate=   2.8kbits/s speed=0.00942x    frame=  196 fps=0.9 q=56.0 size=       1kB time=00:00:02.12 bitrate=   2.8kbits/s speed=0.00949x    frame=  198 fps=0.9 q=56.0 size=       1kB time=00:00:02.16 bitrate=   2.7kbits/s speed=0.00958x    frame=  199 fps=0.9 q=56.0 size=       1kB time=00:00:02.18 bitrate=   2.7kbits/s speed=0.00939x    frame=  200 fps=0.9 q=56.0 size=       1kB time=00:00:02.20 bitrate=   2.7kbits/s speed=0.00944x    frame=  204 fps=0.9 q=56.0 size=       1kB time=00:00:02.28 bitrate=   2.6kbits/s speed=0.00954x    frame=  205 fps=0.8 q=55.0 size=       1kB time=00:00:02.30 bitrate=   2.6kbits/s speed=0.0095x    frame=  206 fps=0.8 q=55.0 size=       1kB time=00:00:02.32 bitrate=   2.5kbits/s speed=0.00954x    frame=  208 fps=0.8 q=55.0 size=       1kB time=00:00:02.36 bitrate=   2.5kbits/s speed=0.00957x    frame=  209 fps=0.8 q=55.0 size=       1kB time=00:00:02.38 bitrate=   2.5kbits/s speed=0.00959x    frame=  210 fps=0.8 q=55.0 size=       1kB time=00:00:02.40 bitrate=   2.5kbits/s speed=0.00963x    frame=  211 fps=0.8 q=55.0 size=       1kB time=00:00:02.42 bitrate=   2.4kbits/s speed=0.00961x    frame=  214 fps=0.8 q=55.0 size=       1kB time=00:00:02.48 bitrate=   2.4kbits/s speed=0.00956x    frame=  215 fps=0.8 q=55.0 size=       1kB time=00:00:02.50 bitrate=   2.4kbits/s speed=0.00959x    frame=  216 fps=0.8 q=55.0 size=       1kB time=00:00:02.52 bitrate=   2.3kbits/s speed=0.00962x    frame=  219 fps=0.8 q=55.0 size=       1kB time=00:00:02.58 bitrate=   2.3kbits/s speed=0.00969x    frame=  220 fps=0.8 q=55.0 size=       1kB time=00:00:02.60 bitrate=   2.3kbits/s speed=0.00961x    frame=  221 fps=0.8 q=55.0 size=       1kB time=00:00:02.62 bitrate=   2.2kbits/s speed=0.00966x    frame=  225 fps=0.8 q=55.0 size=       1kB time=00:00:02.70 bitrate=   2.2kbits/s speed=0.00965x    frame=  226 fps=0.8 q=55.0 size=       1kB time=00:00:02.72 bitrate=   2.2kbits/s speed=0.00969x    frame=  227 fps=0.8 q=55.0 size=       1kB time=00:00:02.74 bitrate=   2.1kbits/s speed=0.00973x    frame=  229 fps=0.8 q=55.0 size=       1kB time=00:00:02.78 bitrate=   2.1kbits/s speed=0.00968x    frame=  230 fps=0.8 q=55.0 size=       1kB time=00:00:02.80 bitrate=   2.1kbits/s speed=0.00971x    frame=  231 fps=0.8 q=55.0 size=       1kB time=00:00:02.82 bitrate=   2.1kbits/s speed=0.00975x    frame=  232 fps=0.8 q=55.0 size=       1kB time=00:00:02.84 bitrate=   2.1kbits/s speed=0.00977x    frame=  233 fps=0.8 q=55.0 size=       1kB time=00:00:02.86 bitrate=   2.1kbits/s speed=0.00978x    frame=  234 fps=0.8 q=55.0 size=       1kB time=00:00:02.88 bitrate=   2.0kbits/s speed=0.00968x    frame=  235 fps=0.8 q=55.0 size=       1kB time=00:00:02.90 bitrate=   2.0kbits/s speed=0.00971x    frame=  236 fps=0.8 q=55.0 size=       1kB time=00:00:02.92 bitrate=   2.0kbits/s speed=0.00976x    frame=  238 fps=0.8 q=55.0 size=       1kB time=00:00:02.96 bitrate=   2.0kbits/s speed=0.00972x    frame=  239 fps=0.8 q=55.0 size=       1kB time=00:00:02.98 bitrate=   2.0kbits/s speed=0.00971x    frame=  240 fps=0.8 q=55.0 size=       1kB time=00:00:03.00 bitrate=   2.0kbits/s speed=0.00973x    frame=  244 fps=0.8 q=55.0 size=       1kB time=00:00:03.08 bitrate=   1.9kbits/s speed=0.00967x    frame=  245 fps=0.8 q=55.0 size=       1kB time=00:00:03.10 bitrate=   1.9kbits/s speed=0.0097x    frame=  246 fps=0.8 q=55.0 size=       1kB time=00:00:03.12 bitrate=   1.9kbits/s speed=0.00974x    frame=  250 fps=0.8 q=55.0 size=       1kB time=00:00:03.20 bitrate=   1.8kbits/s speed=0.00969x    frame=  251 fps=0.8 q=55.0 size=       1kB time=00:00:03.22 bitrate=   1.8kbits/s speed=0.00972x    frame=  252 fps=0.8 q=55.0 size=       1kB time=00:00:03.24 bitrate=   1.8kbits/s speed=0.00975x    frame=  255 fps=0.8 q=55.0 size=       1kB time=00:00:03.30 bitrate=   1.8kbits/s speed=0.00985x    frame=  256 fps=0.8 q=55.0 size=       1kB time=00:00:03.32 bitrate=   1.8kbits/s speed=0.00973x    frame=  257 fps=0.8 q=55.0 size=       1kB time=00:00:03.34 bitrate=   1.8kbits/s speed=0.00976x    frame=  261 fps=0.7 q=55.0 size=       1kB time=00:00:03.42 bitrate=   1.7kbits/s speed=0.00981x    frame=  262 fps=0.7 q=55.0 size=       1kB time=00:00:03.44 bitrate=   1.7kbits/s speed=0.00978x    frame=  263 fps=0.7 q=55.0 size=       1kB time=00:00:03.46 bitrate=   1.7kbits/s speed=0.0098x    frame=  264 fps=0.7 q=55.0 size=       1kB time=00:00:03.48 bitrate=   1.7kbits/s speed=0.00984x    frame=  266 fps=0.7 q=55.0 size=       1kB time=00:00:03.52 bitrate=   1.7kbits/s speed=0.00984x    frame=  267 fps=0.7 q=55.0 size=       1kB time=00:00:03.54 bitrate=   1.7kbits/s speed=0.00981x    frame=  268 fps=0.7 q=55.0 size=       1kB time=00:00:03.56 bitrate=   1.7kbits/s speed=0.00983x    frame=  269 fps=0.7 q=55.0 size=       1kB time=00:00:03.58 bitrate=   1.6kbits/s speed=0.00983x    frame=  270 fps=0.7 q=55.0 size=       1kB time=00:00:03.60 bitrate=   1.6kbits/s speed=0.00987x    frame=  271 fps=0.7 q=55.0 size=       1kB time=00:00:03.62 bitrate=   1.6kbits/s speed=0.00981x    frame=  272 fps=0.7 q=55.0 size=       1kB time=00:00:03.64 bitrate=   1.6kbits/s speed=0.00982x    frame=  273 fps=0.7 q=55.0 size=       1kB time=00:00:03.66 bitrate=   1.6kbits/s speed=0.00985x    frame=  274 fps=0.7 q=55.0 size=       1kB time=00:00:03.68 bitrate=   1.6kbits/s speed=0.00988x    frame=  275 fps=0.7 q=55.0 size=       1kB time=00:00:03.70 bitrate=   1.6kbits/s speed=0.00988x    frame=  276 fps=0.7 q=55.0 size=       1kB time=00:00:03.72 bitrate=   1.6kbits/s speed=0.00986x    frame=  277 fps=0.7 q=55.0 size=       1kB time=00:00:03.74 bitrate=   1.6kbits/s speed=0.00982x    frame=  278 fps=0.7 q=55.0 size=       1kB time=00:00:03.76 bitrate=   1.6kbits/s speed=0.00983x    frame=  280 fps=0.7 q=55.0 size=       1kB time=00:00:03.80 bitrate=   1.5kbits/s speed=0.00981x    frame=  281 fps=0.7 q=55.0 size=       1kB time=00:00:03.82 bitrate=   1.5kbits/s speed=0.00984x    frame=  282 fps=0.7 q=55.0 size=       1kB time=00:00:03.84 bitrate=   1.5kbits/s speed=0.00986x    frame=  284 fps=0.7 q=55.0 size=       1kB time=00:00:03.88 bitrate=   1.5kbits/s speed=0.00991x    frame=  285 fps=0.7 q=55.0 size=       1kB time=00:00:03.90 bitrate=   1.5kbits/s speed=0.00981x    frame=  286 fps=0.7 q=55.0 size=       1kB time=00:00:03.92 bitrate=   1.5kbits/s speed=0.00982x    frame=  287 fps=0.7 q=55.0 size=       1kB time=00:00:03.94 bitrate=   1.5kbits/s speed=0.00984x    frame=  290 fps=0.7 q=55.0 size=       1kB time=00:00:04.00 bitrate=   1.5kbits/s speed=0.00986x    frame=  291 fps=0.7 q=55.0 size=       1kB time=00:00:04.02 bitrate=   1.5kbits/s speed=0.00982x    frame=  292 fps=0.7 q=55.0 size=       1kB time=00:00:04.04 bitrate=   1.5kbits/s speed=0.00984x    frame=  294 fps=0.7 q=55.0 size=       1kB time=00:00:04.08 bitrate=   1.4kbits/s speed=0.00983x    frame=  295 fps=0.7 q=55.0 size=       1kB time=00:00:04.10 bitrate=   1.4kbits/s speed=0.00986x    frame=  296 fps=0.7 q=55.0 size=       1kB time=00:00:04.12 bitrate=   1.4kbits/s speed=0.00987x    frame=  297 fps=0.7 q=55.0 size=       1kB time=00:00:04.14 bitrate=   1.4kbits/s speed=0.0099x    frame=  298 fps=0.7 q=55.0 size=       1kB time=00:00:04.16 bitrate=   1.4kbits/s speed=0.00989x    frame=  299 fps=0.7 q=55.0 size=       1kB time=00:00:04.18 bitrate=   1.4kbits/s speed=0.00984x    frame=  300 fps=0.7 q=55.0 size=       1kB time=00:00:04.20 bitrate=   1.4kbits/s speed=0.00985x    frame=  301 fps=0.7 q=55.0 size=       1kB time=00:00:04.22 bitrate=   1.4kbits/s speed=0.00987x    frame=  304 fps=0.7 q=55.0 size=       1kB time=00:00:04.28 bitrate=   1.4kbits/s speed=0.00984x    frame=  305 fps=0.7 q=55.0 size=       1kB time=00:00:04.30 bitrate=   1.4kbits/s speed=0.00987x    frame=  306 fps=0.7 q=55.0 size=       1kB time=00:00:04.32 bitrate=   1.4kbits/s speed=0.00989x    frame=  308 fps=0.7 q=55.0 size=       1kB time=00:00:04.36 bitrate=   1.4kbits/s speed=0.00983x    frame=  309 fps=0.7 q=55.0 size=       1kB time=00:00:04.38 bitrate=   1.3kbits/s speed=0.00985x    frame=  310 fps=0.7 q=55.0 size=       1kB time=00:00:04.40 bitrate=   1.3kbits/s speed=0.00987x    frame=  311 fps=0.7 q=55.0 size=       1kB time=00:00:04.42 bitrate=   1.3kbits/s speed=0.00991x    frame=  312 fps=0.7 q=55.0 size=       1kB time=00:00:04.44 bitrate=   1.3kbits/s speed=0.00993x    frame=  313 fps=0.7 q=55.0 size=       1kB time=00:00:04.46 bitrate=   1.3kbits/s speed=0.00985x    frame=  314 fps=0.7 q=55.0 size=       1kB time=00:00:04.48 bitrate=   1.3kbits/s speed=0.00984x    frame=  315 fps=0.7 q=55.0 size=       1kB time=00:00:04.50 bitrate=   1.3kbits/s speed=0.00987x    frame=  317 fps=0.7 q=55.0 size=       1kB time=00:00:04.54 bitrate=   1.3kbits/s speed=0.00994x    frame=  318 fps=0.7 q=55.0 size=       1kB time=00:00:04.56 bitrate=   1.3kbits/s speed=0.00983x    frame=  319 fps=0.7 q=55.0 size=       1kB time=00:00:04.58 bitrate=   1.3kbits/s speed=0.00984x    frame=  320 fps=0.7 q=55.0 size=       1kB time=00:00:04.60 bitrate=   1.3kbits/s speed=0.00987x    frame=  321 fps=0.7 q=55.0 size=       1kB time=00:00:04.62 bitrate=   1.3kbits/s speed=0.00988x    frame=  323 fps=0.7 q=55.0 size=       1kB time=00:00:04.66 bitrate=   1.3kbits/s speed=0.00983x    frame=  324 fps=0.7 q=55.0 size=       1kB time=00:00:04.68 bitrate=   1.3kbits/s speed=0.00984x    frame=  325 fps=0.7 q=55.0 size=       1kB time=00:00:04.70 bitrate=   1.3kbits/s speed=0.00986x    frame=  328 fps=0.7 q=55.0 size=       1kB time=00:00:04.76 bitrate=   1.2kbits/s speed=0.00983x    frame=  329 fps=0.7 q=55.0 size=       1kB time=00:00:04.78 bitrate=   1.2kbits/s speed=0.00984x    frame=  330 fps=0.7 q=55.0 size=       1kB time=00:00:04.80 bitrate=   1.2kbits/s speed=0.00986x    frame=  332 fps=0.7 q=55.0 size=       1kB time=00:00:04.84 bitrate=   1.2kbits/s speed=0.00992x    frame=  333 fps=0.7 q=52.0 size=       1kB time=00:00:04.86 bitrate=   1.2kbits/s speed=0.00985x    frame=  334 fps=0.7 q=55.0 size=       1kB time=00:00:04.88 bitrate=   1.2kbits/s speed=0.00985x    frame=  335 fps=0.7 q=55.0 size=       1kB time=00:00:04.90 bitrate=   1.2kbits/s speed=0.00988x    frame=  338 fps=0.7 q=55.0 size=    2504kB time=00:00:04.96 bitrate=4134.6kbits/s speed=0.00995x    frame=  344 fps=0.7 q=55.0 size=    2504kB time=00:00:05.08 bitrate=4037.0kbits/s speed=0.0101x    frame=  346 fps=0.7 q=55.0 size=    2504kB time=00:00:05.12 bitrate=4005.5kbits/s speed=0.0102x    frame=  349 fps=0.7 q=55.0 size=    2504kB time=00:00:05.18 bitrate=3959.1kbits/s speed=0.0103x    frame=  350 fps=0.7 q=55.0 size=    2504kB time=00:00:05.20 bitrate=3943.8kbits/s speed=0.0102x    frame=  351 fps=0.7 q=55.0 size=    2504kB time=00:00:05.22 bitrate=3928.7kbits/s speed=0.0102x    frame=  354 fps=0.7 q=55.0 size=    2504kB time=00:00:05.28 bitrate=3884.1kbits/s speed=0.0103x    frame=  355 fps=0.7 q=55.0 size=    2504kB time=00:00:05.30 bitrate=3869.4kbits/s speed=0.0103x    frame=  356 fps=0.7 q=55.0 size=    2504kB time=00:00:05.32 bitrate=3854.9kbits/s speed=0.0103x    frame=  357 fps=0.7 q=55.0 size=    2504kB time=00:00:05.34 bitrate=3840.5kbits/s speed=0.0103x    frame=  358 fps=0.7 q=55.0 size=    2504kB time=00:00:05.36 bitrate=3826.1kbits/s speed=0.0103x    frame=  359 fps=0.7 q=55.0 size=    2504kB time=00:00:05.38 bitrate=3811.9kbits/s speed=0.0103x    frame=  360 fps=0.7 q=55.0 size=    2504kB time=00:00:05.40 bitrate=3797.8kbits/s speed=0.0103x    frame=  362 fps=0.7 q=55.0 size=    2504kB time=00:00:05.44 bitrate=3769.9kbits/s speed=0.0104x    frame=  363 fps=0.7 q=55.0 size=    2504kB time=00:00:05.46 bitrate=3756.1kbits/s speed=0.0103x    frame=  364 fps=0.7 q=55.0 size=    2504kB time=00:00:05.48 bitrate=3742.4kbits/s speed=0.0104x    frame=  365 fps=0.7 q=55.0 size=    2504kB time=00:00:05.50 bitrate=3728.8kbits/s speed=0.0104x    frame=  366 fps=0.7 q=55.0 size=    2504kB time=00:00:05.52 bitrate=3715.3kbits/s speed=0.0104x    frame=  368 fps=0.7 q=55.0 size=    2504kB time=00:00:05.56 bitrate=3688.5kbits/s speed=0.0103x    frame=  369 fps=0.7 q=55.0 size=    2504kB time=00:00:05.58 bitrate=3675.3kbits/s speed=0.0104x    frame=  370 fps=0.7 q=55.0 size=    2504kB time=00:00:05.60 bitrate=3662.2kbits/s speed=0.0104x    frame=  371 fps=0.7 q=55.0 size=    2504kB time=00:00:05.62 bitrate=3649.2kbits/s speed=0.0104x    frame=  372 fps=0.7 q=55.0 size=    2504kB time=00:00:05.64 bitrate=3636.2kbits/s speed=0.0104x    frame=  373 fps=0.7 q=55.0 size=    2504kB time=00:00:05.66 bitrate=3623.4kbits/s speed=0.0103x    frame=  374 fps=0.7 q=55.0 size=    2504kB time=00:00:05.68 bitrate=3610.6kbits/s speed=0.0103x    frame=  375 fps=0.7 q=55.0 size=    2504kB time=00:00:05.70 bitrate=3598.0kbits/s speed=0.0103x    frame=  378 fps=0.7 q=55.0 size=    2504kB time=00:00:05.76 bitrate=3560.5kbits/s speed=0.0104x    frame=  379 fps=0.7 q=55.0 size=    2504kB time=00:00:05.78 bitrate=3548.2kbits/s speed=0.0103x    frame=  380 fps=0.7 q=55.0 size=    2504kB time=00:00:05.80 bitrate=3535.9kbits/s speed=0.0104x    frame=  382 fps=0.7 q=55.0 size=    2504kB time=00:00:05.84 bitrate=3511.7kbits/s speed=0.0103x    frame=  383 fps=0.7 q=55.0 size=    2504kB time=00:00:05.86 bitrate=3499.7kbits/s speed=0.0103x    frame=  384 fps=0.7 q=55.0 size=    2504kB time=00:00:05.88 bitrate=3487.8kbits/s speed=0.0103x    frame=  386 fps=0.7 q=55.0 size=    2504kB time=00:00:05.92 bitrate=3464.3kbits/s speed=0.0104x    frame=  387 fps=0.7 q=55.0 size=    2504kB time=00:00:05.94 bitrate=3452.6kbits/s speed=0.0103x    frame=  388 fps=0.7 q=55.0 size=    2504kB time=00:00:05.96 bitrate=3441.0kbits/s speed=0.0103x    frame=  389 fps=0.7 q=55.0 size=    2504kB time=00:00:05.98 bitrate=3429.5kbits/s speed=0.0103x    frame=  391 fps=0.7 q=55.0 size=    2504kB time=00:00:06.02 bitrate=3406.7kbits/s speed=0.0103x    frame=  392 fps=0.7 q=55.0 size=    2504kB time=00:00:06.04 bitrate=3395.5kbits/s speed=0.0103x    frame=  393 fps=0.7 q=55.0 size=    2504kB time=00:00:06.06 bitrate=3384.3kbits/s speed=0.0103x    frame=  396 fps=0.7 q=55.0 size=    2504kB time=00:00:06.12 bitrate=3351.1kbits/s speed=0.0103x    frame=  397 fps=0.7 q=55.0 size=    2504kB time=00:00:06.14 bitrate=3340.2kbits/s speed=0.0103x    frame=  398 fps=0.7 q=55.0 size=    2504kB time=00:00:06.16 bitrate=3329.3kbits/s speed=0.0103x    frame=  401 fps=0.7 q=55.0 size=    2504kB time=00:00:06.22 bitrate=3297.2kbits/s speed=0.0104x    frame=  402 fps=0.7 q=55.0 size=    2504kB time=00:00:06.24 bitrate=3286.6kbits/s speed=0.0103x    frame=  403 fps=0.7 q=55.0 size=    2504kB time=00:00:06.26 bitrate=3276.1kbits/s speed=0.0103x    frame=  404 fps=0.7 q=55.0 size=    2504kB time=00:00:06.28 bitrate=3265.7kbits/s speed=0.0103x    frame=  407 fps=0.7 q=55.0 size=    2504kB time=00:00:06.34 bitrate=3234.8kbits/s speed=0.0103x    frame=  408 fps=0.7 q=55.0 size=    2504kB time=00:00:06.36 bitrate=3224.6kbits/s speed=0.0102x    frame=  409 fps=0.7 q=55.0 size=    2504kB time=00:00:06.38 bitrate=3214.5kbits/s speed=0.0103x    frame=  412 fps=0.7 q=55.0 size=    2504kB time=00:00:06.44 bitrate=3184.6kbits/s speed=0.0103x    frame=  413 fps=0.7 q=55.0 size=    2504kB time=00:00:06.46 bitrate=3174.7kbits/s speed=0.0103x    frame=  414 fps=0.7 q=55.0 size=    2504kB time=00:00:06.48 bitrate=3164.9kbits/s speed=0.0103x    frame=  415 fps=0.7 q=55.0 size=    2504kB time=00:00:06.50 bitrate=3155.2kbits/s speed=0.0103x    frame=  417 fps=0.7 q=55.0 size=    2504kB time=00:00:06.54 bitrate=3135.9kbits/s speed=0.0103x    frame=  418 fps=0.7 q=55.0 size=    2504kB time=00:00:06.56 bitrate=3126.3kbits/s speed=0.0103x    frame=  419 fps=0.7 q=55.0 size=    2504kB time=00:00:06.58 bitrate=3116.8kbits/s speed=0.0103x    frame=  421 fps=0.7 q=55.0 size=    2504kB time=00:00:06.62 bitrate=3098.0kbits/s speed=0.0102x    frame=  422 fps=0.7 q=55.0 size=    2504kB time=00:00:06.64 bitrate=3088.7kbits/s speed=0.0102x    frame=  423 fps=0.7 q=55.0 size=    2504kB time=00:00:06.66 bitrate=3079.4kbits/s speed=0.0102x    frame=  426 fps=0.7 q=55.0 size=    2504kB time=00:00:06.72 bitrate=3051.9kbits/s speed=0.0103x    frame=  427 fps=0.6 q=55.0 size=    2504kB time=00:00:06.74 bitrate=3042.9kbits/s speed=0.0102x    frame=  428 fps=0.6 q=55.0 size=    2504kB time=00:00:06.76 bitrate=3033.9kbits/s speed=0.0102x    frame=  430 fps=0.6 q=55.0 size=    2504kB time=00:00:06.80 bitrate=3016.0kbits/s speed=0.0102x    frame=  431 fps=0.6 q=55.0 size=    2504kB time=00:00:06.82 bitrate=3007.2kbits/s speed=0.0102x    frame=  432 fps=0.6 q=55.0 size=    2504kB time=00:00:06.84 bitrate=2998.4kbits/s speed=0.0102x    frame=  434 fps=0.6 q=55.0 size=    2504kB time=00:00:06.88 bitrate=2981.0kbits/s speed=0.0103x    frame=  436 fps=0.6 q=55.0 size=    2504kB time=00:00:06.92 bitrate=2963.7kbits/s speed=0.0102x    frame=  437 fps=0.6 q=55.0 size=    2504kB time=00:00:06.94 bitrate=2955.2kbits/s speed=0.0102x    frame=  438 fps=0.6 q=55.0 size=    2504kB time=00:00:06.96 bitrate=2946.7kbits/s speed=0.0102x    frame=  440 fps=0.6 q=55.0 size=    2504kB time=00:00:07.00 bitrate=2929.9kbits/s speed=0.0102x    frame=  441 fps=0.6 q=55.0 size=    2504kB time=00:00:07.02 bitrate=2921.5kbits/s speed=0.0102x    frame=  442 fps=0.6 q=55.0 size=    2504kB time=00:00:07.04 bitrate=2913.2kbits/s speed=0.0103x    frame=  443 fps=0.6 q=55.0 size=    2504kB time=00:00:07.06 bitrate=2905.0kbits/s speed=0.0102x    frame=  445 fps=0.6 q=55.0 size=    2504kB time=00:00:07.10 bitrate=2888.6kbits/s speed=0.0102x    frame=  446 fps=0.6 q=55.0 size=    2504kB time=00:00:07.12 bitrate=2880.5kbits/s speed=0.0102x    frame=  447 fps=0.6 q=55.0 size=    2504kB time=00:00:07.14 bitrate=2872.4kbits/s speed=0.0102x    frame=  449 fps=0.6 q=55.0 size=    2504kB time=00:00:07.18 bitrate=2856.4kbits/s speed=0.0102x    frame=  450 fps=0.6 q=55.0 size=    2504kB time=00:00:07.20 bitrate=2848.5kbits/s speed=0.0102x    frame=  451 fps=0.6 q=55.0 size=    2504kB time=00:00:07.22 bitrate=2840.6kbits/s speed=0.0102x    frame=  455 fps=0.6 q=55.0 size=    2504kB time=00:00:07.30 bitrate=2809.5kbits/s speed=0.0102x    frame=  456 fps=0.6 q=55.0 size=    2504kB time=00:00:07.32 bitrate=2801.8kbits/s speed=0.0102x    frame=  457 fps=0.6 q=55.0 size=    2504kB time=00:00:07.34 bitrate=2794.2kbits/s speed=0.0102x    frame=  459 fps=0.6 q=55.0 size=    2504kB time=00:00:07.38 bitrate=2779.0kbits/s speed=0.0102x    frame=  460 fps=0.6 q=55.0 size=    2504kB time=00:00:07.40 bitrate=2771.5kbits/s speed=0.0102x    frame=  461 fps=0.6 q=55.0 size=    2504kB time=00:00:07.42 bitrate=2764.0kbits/s speed=0.0102x    frame=  462 fps=0.6 q=55.0 size=    2504kB time=00:00:07.44 bitrate=2756.6kbits/s speed=0.0102x    frame=  464 fps=0.6 q=55.0 size=    2504kB time=00:00:07.48 bitrate=2741.9kbits/s speed=0.0102x    frame=  465 fps=0.6 q=55.0 size=    2504kB time=00:00:07.50 bitrate=2734.6kbits/s speed=0.0102x    frame=  466 fps=0.6 q=55.0 size=    2504kB time=00:00:07.52 bitrate=2727.3kbits/s speed=0.0102x    frame=  467 fps=0.6 q=55.0 size=    2504kB time=00:00:07.54 bitrate=2720.1kbits/s speed=0.0102x    frame=  469 fps=0.6 q=55.0 size=    2504kB time=00:00:07.58 bitrate=2705.7kbits/s speed=0.0102x    frame=  470 fps=0.6 q=55.0 size=    2504kB time=00:00:07.60 bitrate=2698.6kbits/s speed=0.0102x    frame=  471 fps=0.6 q=55.0 size=    2504kB time=00:00:07.62 bitrate=2691.5kbits/s speed=0.0102x    frame=  472 fps=0.6 q=55.0 size=    2504kB time=00:00:07.64 bitrate=2684.5kbits/s speed=0.0102x    frame=  473 fps=0.6 q=55.0 size=    2504kB time=00:00:07.66 bitrate=2677.4kbits/s speed=0.0102x    frame=  474 fps=0.6 q=55.0 size=    2504kB time=00:00:07.68 bitrate=2670.5kbits/s speed=0.0102x    frame=  475 fps=0.6 q=55.0 size=    2504kB time=00:00:07.70 bitrate=2663.5kbits/s speed=0.0102x    frame=  477 fps=0.6 q=55.0 size=    2504kB time=00:00:07.74 bitrate=2649.8kbits/s speed=0.0102x    frame=  478 fps=0.6 q=55.0 size=    2504kB time=00:00:07.76 bitrate=2643.0kbits/s speed=0.0102x    frame=  479 fps=0.6 q=55.0 size=    2504kB time=00:00:07.78 bitrate=2636.2kbits/s speed=0.0102x    frame=  480 fps=0.6 q=55.0 size=    2504kB time=00:00:07.80 bitrate=2629.4kbits/s speed=0.0102x    frame=  481 fps=0.6 q=55.0 size=    2504kB time=00:00:07.82 bitrate=2622.7kbits/s speed=0.0102x    frame=  482 fps=0.6 q=55.0 size=    2504kB time=00:00:07.84 bitrate=2616.0kbits/s speed=0.0102x    frame=  483 fps=0.6 q=55.0 size=    2504kB time=00:00:07.86 bitrate=2609.3kbits/s speed=0.0102x    frame=  484 fps=0.6 q=55.0 size=    2504kB time=00:00:07.88 bitrate=2602.7kbits/s speed=0.0102x    frame=  485 fps=0.6 q=55.0 size=    2504kB time=00:00:07.90 bitrate=2596.1kbits/s speed=0.0102x    frame=  486 fps=0.6 q=55.0 size=    2504kB time=00:00:07.92 bitrate=2589.6kbits/s speed=0.0102x    frame=  487 fps=0.6 q=55.0 size=    2504kB time=00:00:07.94 bitrate=2583.0kbits/s speed=0.0102x    frame=  488 fps=0.6 q=55.0 size=    2504kB time=00:00:07.96 bitrate=2576.6kbits/s speed=0.0102x    frame=  489 fps=0.6 q=55.0 size=    2504kB time=00:00:07.98 bitrate=2570.1kbits/s speed=0.0102x    frame=  490 fps=0.6 q=55.0 size=    2504kB time=00:00:08.00 bitrate=2563.7kbits/s speed=0.0102x    frame=  491 fps=0.6 q=55.0 size=    2504kB time=00:00:08.02 bitrate=2557.3kbits/s speed=0.0102x    frame=  492 fps=0.6 q=55.0 size=    2504kB time=00:00:08.04 bitrate=2550.9kbits/s speed=0.0102x    frame=  494 fps=0.6 q=55.0 size=    2504kB time=00:00:08.08 bitrate=2538.3kbits/s speed=0.0102x    frame=  495 fps=0.6 q=55.0 size=    2504kB time=00:00:08.10 bitrate=2532.0kbits/s speed=0.0102x    frame=  496 fps=0.6 q=55.0 size=    2504kB time=00:00:08.12 bitrate=2525.8kbits/s speed=0.0102x    frame=  497 fps=0.6 q=55.0 size=    2504kB time=00:00:08.14 bitrate=2519.6kbits/s speed=0.0102x    frame=  498 fps=0.6 q=55.0 size=    2504kB time=00:00:08.16 bitrate=2513.4kbits/s speed=0.0101x    frame=  499 fps=0.6 q=55.0 size=    2504kB time=00:00:08.18 bitrate=2507.3kbits/s speed=0.0101x    frame=  500 fps=0.6 q=55.0 size=    2504kB time=00:00:08.20 bitrate=2501.2kbits/s speed=0.0102x    frame=  500 fps=0.5 q=-1.0 Lsize=    5077kB time=00:00:09.94 bitrate=4183.6kbits/s speed=0.0102x    
video:5072kB audio:0kB subtitle:0kB other streams:0kB global headers:0kB muxing overhead: 0.085384%
bench: utime=3767.236s
bench: maxrss=4928304kB
[libx264 @ 0x3c841c0] frame I:2     Avg QP:44.08  size:141274
[libx264 @ 0x3c841c0] frame P:108   Avg QP:50.85  size: 23056
[libx264 @ 0x3c841c0] frame B:390   Avg QP:50.88  size:  6207
[libx264 @ 0x3c841c0] consecutive B-frames:  0.6%  0.4%  3.6% 32.8% 41.0% 21.6%  0.0%  0.0%  0.0%  0.0%  0.0%  0.0%  0.0%  0.0%  0.0%  0.0%  0.0%
[libx264 @ 0x3c841c0] mb I  I16..4: 36.6% 53.4%  9.9%
[libx264 @ 0x3c841c0] mb P  I16..4:  4.4%  0.6%  0.3%  P16..4: 26.2% 11.7%  2.0%  0.0%  0.0%    skip:54.9%
[libx264 @ 0x3c841c0] mb B  I16..4:  0.1%  0.0%  0.0%  B16..8: 22.3%  0.9%  0.0%  direct: 0.0%  skip:76.6%  L0:42.8% L1:57.1% BI: 0.1%
[libx264 @ 0x3c841c0] final ratefactor: 47.23
[libx264 @ 0x3c841c0] 8x8 transform intra:21.9% inter:94.2%
[libx264 @ 0x3c841c0] direct mvs  spatial:99.2% temporal:0.8%
[libx264 @ 0x3c841c0] coded y,uvDC,uvAC intra: 9.4% 29.2% 3.4% inter: 0.2% 3.5% 0.0%
[libx264 @ 0x3c841c0] i16 v,h,dc,p: 45% 16%  1% 38%
[libx264 @ 0x3c841c0] i8 v,h,dc,ddl,ddr,vr,hd,vl,hu:  5%  1% 18% 11% 16% 11% 14% 10% 13%
[libx264 @ 0x3c841c0] i4 v,h,dc,ddl,ddr,vr,hd,vl,hu:  7%  1% 74%  4%  4%  3%  3%  2%  3%
[libx264 @ 0x3c841c0] i8c dc,h,v,p: 66% 16%  9% 10%
[libx264 @ 0x3c841c0] Weighted P-Frames: Y:0.0% UV:0.0%
[libx264 @ 0x3c841c0] ref P L0: 51.0%  0.2% 18.9%  5.6%  4.6%  4.2%  3.9%  1.5%  1.5%  1.4%  1.4%  1.3%  1.2%  1.2%  1.3%  0.7%
[libx264 @ 0x3c841c0] ref B L0: 92.2%  2.5%  1.5%  0.6%  0.6%  0.5%  0.5%  0.2%  0.2%  0.2%  0.2%  0.2%  0.2%  0.2%  0.1%
[libx264 @ 0x3c841c0] ref B L1: 99.0%  1.0%
[libx264 @ 0x3c841c0] kb/s:4154.80
